<svg width="92" height="33" viewBox="0 0 92 33" fill="none" xmlns="http://www.w3.org/2000/svg">
<path d="M3.48844 7.94C3.00844 7.94 2.62444 7.796 2.33644 7.508C2.04844 7.22 1.90444 6.828 1.90444 6.332C1.90444 5.292 2.43244 4.772 3.48844 4.772C3.96844 4.772 4.34444 4.916 4.61644 5.204C4.90444 5.476 5.04844 5.852 5.04844 6.332C5.04844 7.404 4.52844 7.94 3.48844 7.94ZM7.18444 7.94C6.70444 7.94 6.32044 7.796 6.03244 7.508C5.74444 7.22 5.60044 6.828 5.60044 6.332C5.60044 5.292 6.12844 4.772 7.18444 4.772C7.66444 4.772 8.04044 4.916 8.31244 5.204C8.60044 5.476 8.74444 5.852 8.74444 6.332C8.74444 7.404 8.22444 7.94 7.18444 7.94ZM11.2404 18.596H13.4004V21.5H10.9524C9.46444 21.5 8.31244 21.004 7.49644 20.012C6.80844 20.54 5.96844 20.804 4.97644 20.804C3.50444 20.804 2.32844 20.252 1.44844 19.148C0.728438 18.236 0.368438 17.14 0.368438 15.86C0.368438 14.276 0.880438 12.988 1.90444 11.996C2.76844 11.164 3.76844 10.748 4.90444 10.748C5.49644 10.748 6.04044 10.86 6.53644 11.084V10.46L9.53644 8.876V16.868C9.53644 17.492 9.66444 17.94 9.92044 18.212C10.1924 18.468 10.6324 18.596 11.2404 18.596ZM6.53644 14.108C6.12044 13.756 5.64844 13.58 5.12044 13.58C4.59244 13.58 4.16044 13.796 3.82444 14.228C3.50444 14.66 3.34444 15.228 3.34444 15.932C3.34444 16.636 3.50444 17.196 3.82444 17.612C4.14444 18.028 4.58444 18.236 5.14444 18.236C5.75244 18.236 6.22444 18.028 6.56044 17.612C6.54444 17.484 6.53644 17.284 6.53644 17.012V14.108ZM20.2157 18.596H22.3757V21.5H19.9277C18.6797 21.5 17.6637 21.148 16.8797 20.444C15.9997 21.148 14.9197 21.5 13.6397 21.5H11.9597V18.596H13.4717C14.2077 18.596 14.7277 18.436 15.0317 18.116C15.3517 17.796 15.5117 17.252 15.5117 16.484V7.628L18.5117 6.02V10.868L18.5357 10.844V16.868C18.5357 17.492 18.6637 17.94 18.9197 18.212C19.1757 18.468 19.6077 18.596 20.2157 18.596ZM20.9362 21.5V18.596H24.5123C27.3283 18.596 29.5683 17.756 31.2323 16.076C30.1443 14.172 28.8243 13.22 27.2723 13.22C25.9923 13.22 24.5923 13.916 23.0723 15.308V12.644C24.4163 11.172 25.9363 10.436 27.6323 10.436C28.8803 10.436 30.0963 10.892 31.2803 11.804C32.4643 12.716 33.5123 14.012 34.4243 15.692V16.892C33.2723 18.364 31.8323 19.5 30.1043 20.3C28.3923 21.1 26.5203 21.5 24.4883 21.5H20.9362ZM42.8316 20.012C42.8316 21.868 42.3196 23.372 41.2956 24.524C40.3516 25.596 39.1036 26.132 37.5516 26.132C36.5436 26.132 35.5596 25.876 34.5996 25.364V22.724C35.4316 23.188 36.2476 23.42 37.0476 23.42C37.9276 23.42 38.6076 23.132 39.0876 22.556C39.5836 21.996 39.8316 21.212 39.8316 20.204V12.452L42.8316 10.844V20.012Z" fill="white"/>
<path fill-rule="evenodd" clip-rule="evenodd" d="M74.2064 0.0271213C73.2643 -0.0594951 72.3147 0.0619616 71.4254 0.382801C70.5361 0.703641 69.7291 1.21593 69.0621 1.88302C68.3974 2.54787 67.8882 3.3501 67.5707 4.23265C67.4472 4.56176 67.3943 4.91295 67.4154 5.26366C67.4368 5.61818 67.5333 5.9642 67.6987 6.27901C67.864 6.59383 68.0945 6.87031 68.3749 7.09032C68.645 7.30222 68.9555 7.45712 69.2876 7.54572L74.8515 9.32602L74.8746 9.33394L75.7688 12.3822C75.8505 12.6754 76.0043 12.9439 76.2163 13.1634C76.4303 13.385 76.6968 13.5497 76.9913 13.6423L79.5181 14.4513L79.5201 14.452C79.8237 14.5499 80.1474 14.5689 80.4605 14.5071C80.7742 14.4452 81.0667 14.3042 81.3099 14.0977C81.5531 13.8911 81.7389 13.626 81.8495 13.3276C81.96 13.0292 81.9917 12.7076 81.9414 12.3935C81.9387 12.377 81.9357 12.3605 81.9322 12.344L81.7245 11.351L85.823 12.6773C86.4469 12.8882 87.1293 12.847 87.723 12.5622C88.32 12.276 88.7789 11.7668 88.9999 11.1456C89.0015 11.1412 89.0031 11.1367 89.0046 11.1322C89.006 11.128 89.0074 11.1238 89.0088 11.1195L90.9411 5.20684C90.9613 5.14505 90.9758 5.08155 90.9844 5.01715C91.0369 4.62267 90.956 4.22203 90.7543 3.87832C90.5527 3.53462 90.2417 3.26736 89.8705 3.11866C89.8521 3.11132 89.8336 3.10447 89.8149 3.09815L87.6678 2.3724C87.295 2.2465 86.8907 2.24526 86.5172 2.36904C86.1436 2.49283 85.8211 2.73475 85.5988 3.05787C85.5935 3.06558 85.5883 3.07337 85.5832 3.08122L84.5377 4.69027L76.8412 0.864408C76.0347 0.398349 75.1356 0.112557 74.2064 0.0271213ZM72.1578 2.38931C72.7496 2.17578 73.3817 2.09494 74.0087 2.15259C74.6356 2.21024 75.242 2.40494 75.7845 2.72278C75.8057 2.73522 75.8274 2.74694 75.8495 2.7579L84.4375 7.02698C84.9271 7.27032 85.5223 7.10857 85.8193 6.65152L87.2309 4.47924L88.7533 4.99384L86.9726 10.4425C86.9394 10.5288 86.8742 10.5994 86.7903 10.6396C86.7035 10.6812 86.6038 10.6871 86.5127 10.6559L86.4951 10.65L81.0202 8.87835C80.913 8.84363 80.8008 8.82594 80.688 8.82594H80.323C79.9999 8.82594 79.6941 8.97058 79.4902 9.21975C79.2863 9.46891 79.2062 9.7961 79.272 10.1106L79.7248 12.275L77.7924 11.6563L76.7804 8.20692C76.683 7.87487 76.4298 7.61035 76.101 7.4972L75.5428 7.3051L75.5205 7.2977L69.9168 5.50469C69.8947 5.49763 69.8725 5.49129 69.85 5.48567C69.7972 5.47244 69.7477 5.44825 69.7049 5.41469C69.6622 5.38113 69.627 5.33895 69.6018 5.29093C69.5766 5.24291 69.5618 5.19013 69.5586 5.13605C69.5553 5.08197 69.5636 5.02781 69.5829 4.97714L69.5901 4.95753C69.8013 4.3678 70.141 3.83177 70.5849 3.38779C71.0288 2.94381 71.5659 2.60285 72.1578 2.38931Z" fill="white"/>
<path fill-rule="evenodd" clip-rule="evenodd" d="M73.3022 14.7769C73.5607 14.2464 73.3376 13.6081 72.804 13.3512C72.2704 13.0942 71.6284 13.316 71.3699 13.8465C71.0728 14.4565 70.9186 15.1255 70.9191 15.8032C70.9159 16.3728 71.0262 16.9373 71.2437 17.4642C71.4617 17.9925 71.7831 18.4724 72.1893 18.8762C72.5954 19.28 73.0781 19.5995 73.6095 19.8163C74.1394 20.0325 74.7072 20.1422 75.28 20.139C75.4328 20.1396 75.5793 20.2003 75.6874 20.3078C75.7961 20.4159 75.8572 20.5625 75.8572 20.7153V27.3747C75.0888 27.6288 74.2884 27.7867 73.4743 27.8426C72.5274 27.9076 71.5798 27.8334 70.6614 27.6252L70.6614 23.1918C70.6616 22.6104 70.5446 22.0345 70.3175 21.4988C70.0903 20.963 69.7574 20.4779 69.3386 20.072C68.9198 19.6661 68.4234 19.3478 67.8788 19.1357C67.3388 18.9255 66.7623 18.8239 66.1826 18.8369H63.1645C63.0826 17.4837 63.2896 16.1255 63.7753 14.8528C64.3502 13.3463 65.297 12.0078 66.5286 10.9605C66.9791 10.5774 67.032 9.90369 66.6466 9.45576C66.2612 9.00783 65.5836 8.9553 65.133 9.33843C63.6277 10.6185 62.4705 12.2544 61.7679 14.0956C61.0653 15.9368 60.8398 17.9241 61.1122 19.8747C61.3846 21.8253 62.1462 23.6763 63.3269 25.2576C64.5075 26.8388 66.0693 28.0994 67.8684 28.9232C69.6675 29.7471 71.6461 30.1078 73.6222 29.9721C74.8613 29.887 76.0744 29.6085 77.2182 29.1507C77.3037 29.1272 77.3849 29.0934 77.4603 29.0507C78.0543 28.7976 78.6284 28.4956 79.1764 28.1468C80.8445 27.0849 82.2171 25.6228 83.1679 23.8953C84.1187 22.1677 84.6171 20.2301 84.6172 18.2608C84.6172 17.6714 84.1367 17.1935 83.5438 17.1935C82.9509 17.1934 82.4702 17.6712 82.4702 18.2607C82.4701 19.8719 82.0623 21.4572 81.2844 22.8707C80.5065 24.2841 79.3834 25.4804 78.0186 26.3492C78.0138 26.3523 78.009 26.3553 78.0042 26.3583V20.7153C78.0042 19.9964 77.7169 19.3068 77.2056 18.7985C76.6942 18.2901 76.0007 18.0045 75.2775 18.0044L75.2704 18.0045C74.9804 18.0064 74.6929 17.951 74.4246 17.8415C74.1563 17.7321 73.9125 17.5707 73.7074 17.3668C73.5024 17.1629 73.3401 16.9206 73.2299 16.6538C73.1198 16.3871 73.0641 16.1013 73.0661 15.8129L73.0661 15.8042C73.0655 15.4484 73.1463 15.0971 73.3022 14.7769ZM63.5399 20.9715C63.8601 22.0531 64.3704 23.074 65.0508 23.9853C65.9612 25.2046 67.1485 26.1908 68.5144 26.8646V23.1914C68.5145 22.895 68.4549 22.6011 68.3391 22.328C68.2232 22.0548 68.0536 21.8075 67.84 21.6006C67.6265 21.3937 67.3735 21.2314 67.0958 21.1232C66.8182 21.0151 66.5216 20.9634 66.2235 20.9711C66.2142 20.9713 66.2049 20.9715 66.1956 20.9715H63.5399Z" fill="white"/>
<line x1="53.75" y1="2" x2="53.75" y2="32" stroke="white" stroke-width="1.5"/>
</svg>
