<svg width="91" height="32" viewBox="0 0 91 32" fill="none" xmlns="http://www.w3.org/2000/svg">
<path fill-rule="evenodd" clip-rule="evenodd" d="M74.2061 0.0271213C73.2641 -0.0594951 72.3144 0.0619616 71.4251 0.382801C70.5358 0.703641 69.7288 1.21593 69.0619 1.88302C68.3972 2.54787 67.888 3.3501 67.5704 4.23265C67.4469 4.56176 67.394 4.91295 67.4151 5.26366C67.4365 5.61818 67.533 5.9642 67.6984 6.27901C67.8637 6.59383 68.0942 6.87031 68.3746 7.09032C68.6447 7.30222 68.9553 7.45712 69.2873 7.54572L74.8513 9.32602L74.8743 9.33394L75.7686 12.3822C75.8503 12.6754 76.004 12.9439 76.216 13.1634C76.43 13.385 76.6965 13.5497 76.9911 13.6423L79.5179 14.4513L79.5199 14.452C79.8234 14.5499 80.1471 14.5689 80.4602 14.5071C80.7739 14.4452 81.0664 14.3042 81.3096 14.0977C81.5528 13.8911 81.7386 13.626 81.8492 13.3276C81.9598 13.0292 81.9914 12.7076 81.9411 12.3935C81.9384 12.377 81.9354 12.3605 81.932 12.344L81.7242 11.351L85.8228 12.6773C86.4466 12.8882 87.129 12.847 87.7228 12.5622C88.3197 12.276 88.7786 11.7668 88.9996 11.1456L89.0043 11.1322L89.0086 11.1195L90.9409 5.20684C90.9611 5.14505 90.9755 5.08155 90.9841 5.01715C91.0367 4.62267 90.9557 4.22203 90.754 3.87832C90.5524 3.53462 90.2414 3.26736 89.8702 3.11866C89.8519 3.11132 89.8333 3.10447 89.8146 3.09815L87.6676 2.3724C87.2947 2.2465 86.8904 2.24526 86.5169 2.36904C86.1434 2.49283 85.8208 2.73475 85.5986 3.05787C85.5933 3.06558 85.5881 3.07337 85.5829 3.08122L84.5374 4.69027L76.8409 0.864408C76.0344 0.398349 75.1353 0.112557 74.2061 0.0271213ZM72.1575 2.38931C72.7494 2.17578 73.3814 2.09494 74.0084 2.15259C74.6354 2.21024 75.2418 2.40494 75.7842 2.72278C75.8055 2.73522 75.8271 2.74694 75.8492 2.7579L84.4373 7.02698C84.9268 7.27032 85.5221 7.10857 85.8191 6.65152L87.2306 4.47924L88.753 4.99384L86.9723 10.4425C86.9391 10.5288 86.8739 10.5994 86.79 10.6396C86.7033 10.6812 86.6035 10.6871 86.5125 10.6559L86.4949 10.65L81.02 8.87835C80.9127 8.84363 80.8006 8.82594 80.6877 8.82594H80.3227C79.9997 8.82594 79.6938 8.97058 79.4899 9.21975C79.2861 9.46891 79.2059 9.7961 79.2717 10.1106L79.7245 12.275L77.7921 11.6563L76.7801 8.20692C76.6827 7.87487 76.4295 7.61035 76.1007 7.4972L75.5425 7.3051L75.5202 7.2977L69.9165 5.50469C69.8945 5.49763 69.8722 5.49129 69.8497 5.48567C69.7969 5.47244 69.7475 5.44825 69.7047 5.41469C69.6619 5.38113 69.6267 5.33895 69.6015 5.29093C69.5763 5.24291 69.5616 5.19013 69.5583 5.13605C69.5551 5.08197 69.5633 5.02781 69.5826 4.97714L69.5899 4.95753C69.801 4.3678 70.1407 3.83177 70.5846 3.38779C71.0285 2.94381 71.5656 2.60285 72.1575 2.38931Z" fill="#177171"/>
<path fill-rule="evenodd" clip-rule="evenodd" d="M73.302 14.7769C73.5604 14.2464 73.3373 13.6081 72.8037 13.3512C72.2702 13.0942 71.6281 13.316 71.3697 13.8465C71.0725 14.4565 70.9183 15.1255 70.9188 15.8032C70.9156 16.3728 71.0259 16.9373 71.2434 17.4642C71.4614 17.9925 71.7829 18.4724 72.189 18.8762C72.5951 19.28 73.0779 19.5995 73.6092 19.8163C74.1392 20.0325 74.7069 20.1422 75.2797 20.139C75.4325 20.1396 75.579 20.2003 75.6871 20.3078C75.7959 20.4159 75.8569 20.5625 75.8569 20.7153V27.3747C75.0886 27.6288 74.2881 27.7867 73.474 27.8426C72.5271 27.9076 71.5795 27.8334 70.6611 27.6252V23.1918C70.6613 22.6104 70.5443 22.0345 70.3172 21.4988C70.09 20.963 69.7572 20.4779 69.3383 20.072C68.9195 19.6661 68.4231 19.3478 67.8785 19.1357C67.3386 18.9255 66.762 18.8239 66.1824 18.8369H63.1642C63.0823 17.4837 63.2893 16.1255 63.775 14.8528C64.3499 13.3463 65.2967 12.0078 66.5283 10.9605C66.9789 10.5774 67.0317 9.90369 66.6463 9.45576C66.2609 9.00783 65.5833 8.9553 65.1327 9.33843C63.6275 10.6185 62.4703 12.2544 61.7676 14.0956C61.065 15.9368 60.8395 17.9241 61.1119 19.8747C61.3844 21.8253 62.146 23.6763 63.3266 25.2576C64.5072 26.8388 66.069 28.0994 67.8681 28.9232C69.6672 29.7471 71.6459 30.1078 73.6219 29.9721C74.861 29.887 76.0742 29.6085 77.218 29.1507C77.3034 29.1272 77.3846 29.0934 77.4601 29.0507C78.054 28.7976 78.6281 28.4956 79.1761 28.1468C80.8442 27.0849 82.2168 25.6228 83.1676 23.8953C84.1184 22.1677 84.6168 20.2301 84.6169 18.2608C84.617 17.6714 84.1364 17.1935 83.5435 17.1935C82.9506 17.1934 82.47 17.6712 82.4699 18.2607C82.4698 19.8719 82.062 21.4572 81.2841 22.8707C80.5062 24.2841 79.3831 25.4804 78.0183 26.3492L78.0039 26.3583V20.7153C78.0039 19.9964 77.7167 19.3068 77.2053 18.7985C76.6939 18.2901 76.0004 18.0045 75.2772 18.0044L75.2701 18.0045C74.9801 18.0064 74.6926 17.951 74.4243 17.8415C74.156 17.7321 73.9122 17.5707 73.7072 17.3668C73.5021 17.1629 73.3398 16.9206 73.2297 16.6538C73.1196 16.3871 73.0639 16.1013 73.0658 15.8129L73.0658 15.8042C73.0652 15.4484 73.146 15.0971 73.302 14.7769ZM63.5397 20.9715C63.8598 22.0531 64.3701 23.074 65.0505 23.9853C65.9609 25.2046 67.1483 26.1908 68.5141 26.8646V23.1914C68.5142 22.895 68.4546 22.6011 68.3388 22.328C68.223 22.0548 68.0533 21.8075 67.8398 21.6006C67.6262 21.3937 67.3732 21.2314 67.0955 21.1232C66.8179 21.0151 66.5213 20.9634 66.2232 20.9711C66.2139 20.9713 66.2046 20.9715 66.1953 20.9715H63.5397Z" fill="#177171"/>
<path d="M3.48816 7.94C3.00816 7.94 2.62416 7.796 2.33616 7.508C2.04816 7.22 1.90416 6.828 1.90416 6.332C1.90416 5.292 2.43216 4.772 3.48816 4.772C3.96816 4.772 4.34416 4.916 4.61616 5.204C4.90416 5.476 5.04816 5.852 5.04816 6.332C5.04816 7.404 4.52816 7.94 3.48816 7.94Z" fill="#177171"/>
<path d="M7.18416 7.94C6.70416 7.94 6.32016 7.796 6.03216 7.508C5.74416 7.22 5.60016 6.828 5.60016 6.332C5.60016 5.292 6.12816 4.772 7.18416 4.772C7.66416 4.772 8.04016 4.916 8.31216 5.204C8.60016 5.476 8.74416 5.852 8.74416 6.332C8.74416 7.404 8.22416 7.94 7.18416 7.94Z" fill="#177171"/>
<path fill-rule="evenodd" clip-rule="evenodd" d="M11.2402 18.596H13.4714C14.2074 18.596 14.7274 18.436 15.0314 18.116C15.3514 17.796 15.5114 17.252 15.5114 16.484V7.628L18.5114 6.02V10.868L18.5354 10.844V16.868C18.5354 17.492 18.6634 17.94 18.9194 18.212C19.1754 18.468 19.6074 18.596 20.2154 18.596H24.512C27.328 18.596 29.568 17.756 31.232 16.076C30.144 14.172 28.824 13.22 27.272 13.22C25.992 13.22 24.592 13.916 23.072 15.308V12.644C24.416 11.172 25.936 10.436 27.632 10.436C28.88 10.436 30.096 10.892 31.28 11.804C32.464 12.716 33.512 14.012 34.424 15.692V16.892C33.272 18.364 31.832 19.5 30.104 20.3C28.392 21.1 26.52 21.5 24.488 21.5H19.9274C18.6794 21.5 17.6634 21.148 16.8794 20.444C15.9994 21.148 14.9194 21.5 13.6394 21.5H10.9522C9.46416 21.5 8.31216 21.004 7.49616 20.012C6.80816 20.54 5.96816 20.804 4.97616 20.804C3.50416 20.804 2.32816 20.252 1.44816 19.148C0.728164 18.236 0.368164 17.14 0.368164 15.86C0.368164 14.276 0.880164 12.988 1.90416 11.996C2.76816 11.164 3.76816 10.748 4.90416 10.748C5.49616 10.748 6.04016 10.86 6.53616 11.084V10.46L9.53617 8.876V16.868C9.53617 17.492 9.66416 17.94 9.92017 18.212C10.1922 18.468 10.6322 18.596 11.2402 18.596ZM6.53616 14.108C6.12016 13.756 5.64816 13.58 5.12016 13.58C4.59216 13.58 4.16016 13.796 3.82416 14.228C3.50416 14.66 3.34416 15.228 3.34416 15.932C3.34416 16.636 3.50416 17.196 3.82416 17.612C4.14416 18.028 4.58416 18.236 5.14416 18.236C5.75216 18.236 6.22416 18.028 6.56016 17.612C6.54416 17.484 6.53616 17.284 6.53616 17.012V14.108Z" fill="#177171"/>
<path d="M42.8313 20.012C42.8313 21.868 42.3193 23.372 41.2953 24.524C40.3513 25.596 39.1033 26.132 37.5513 26.132C36.5433 26.132 35.5593 25.876 34.5993 25.364V22.724C35.4313 23.188 36.2473 23.42 37.0473 23.42C37.9273 23.42 38.6073 23.132 39.0873 22.556C39.5833 21.996 39.8313 21.212 39.8313 20.204V12.452L42.8313 10.844V20.012Z" fill="#177171"/>
<path d="M52.9997 2V32H54.4997V2H52.9997Z" fill="#177171"/>
</svg>
