<svg width="13" height="12" viewBox="0 0 13 12" fill="none" xmlns="http://www.w3.org/2000/svg">
<path d="M4.13637 3.62281L0.489532 4.15154L0.424941 4.16469C0.327162 4.19065 0.238024 4.24209 0.166629 4.31377C0.0952337 4.38544 0.0441403 4.47478 0.0185659 4.57266C-0.0070084 4.67054 -0.0061473 4.77345 0.0210612 4.87089C0.0482698 4.96833 0.100851 5.0568 0.173435 5.12727L2.81539 7.69892L2.19234 11.3315L2.18491 11.3943C2.17893 11.4955 2.19992 11.5964 2.24576 11.6867C2.29159 11.7771 2.36061 11.8536 2.44575 11.9085C2.5309 11.9634 2.6291 11.9947 2.73031 11.9992C2.83151 12.0036 2.93209 11.9811 3.02174 11.9339L6.28331 10.2191L9.53746 11.9339L9.59462 11.9602C9.68897 11.9974 9.7915 12.0088 9.89171 11.9932C9.99192 11.9777 10.0862 11.9358 10.1648 11.8718C10.2435 11.8078 10.3037 11.724 10.3393 11.6291C10.3749 11.5341 10.3846 11.4314 10.3674 11.3315L9.74381 7.69892L12.3869 5.1267L12.4315 5.07811C12.4952 4.99967 12.5369 4.90575 12.5525 4.80591C12.5681 4.70608 12.5569 4.6039 12.5201 4.50979C12.4834 4.41567 12.4223 4.33299 12.3432 4.27016C12.264 4.20733 12.1697 4.1666 12.0697 4.15212L8.42283 3.62281L6.79261 0.318938C6.74544 0.223214 6.67241 0.142606 6.5818 0.0862402C6.49118 0.029874 6.3866 0 6.27988 0C6.17317 0 6.06858 0.029874 5.97797 0.0862402C5.88735 0.142606 5.81433 0.223214 5.76716 0.318938L4.13637 3.62281Z" fill="#177171"/>
</svg>
