<svg width="40" height="40" viewBox="0 0 40 40" fill="none" xmlns="http://www.w3.org/2000/svg">
<rect width="40" height="40" rx="4" fill="#177171"/>
<path d="M9.94154 9.56249C10.0609 9.43267 10.21 9.33078 10.3776 9.26524L10.5199 9.22015L14.2589 8.24944C14.2589 8.24944 14.2589 8.24943 14.259 8.24942C14.4603 8.19726 14.6708 8.18623 14.8769 8.21708C15.0811 8.24764 15.2762 8.31857 15.4502 8.42515L15.6058 8.53507L23.9935 15.219L24.0639 15.2751L24.1526 15.2596L29.353 14.3505C30.2279 14.1976 31.1288 14.2652 31.9688 14.5468C32.8087 14.8284 33.5589 15.3142 34.1475 15.9569L34.1475 15.9569C34.7273 16.5894 34.9611 17.4099 34.6829 18.2057L34.6829 18.2057C34.4606 18.8419 34.0893 19.4203 33.5973 19.8956C33.106 20.3704 32.5076 20.7294 31.8486 20.9442L31.5735 21.0253L11.116 26.3313C11.116 26.3313 11.1159 26.3313 11.1159 26.3314C10.8911 26.3896 10.6542 26.3882 10.4302 26.3275C10.2081 26.2674 10.0074 26.1513 9.84834 25.9919L9.73979 25.8673L5.4319 20.2944L5.43183 20.2943C5.32491 20.1562 5.25255 19.9966 5.21986 19.8279C5.18717 19.6593 5.19491 19.4857 5.24256 19.3203C5.29021 19.1549 5.37663 19.0017 5.49566 18.8728C5.61337 18.7454 5.75988 18.645 5.9244 18.5797L6.07295 18.5322L9.14813 17.7349L9.14817 17.7349C9.35988 17.6799 9.58157 17.6705 9.79755 17.7073C10.012 17.7438 10.2153 17.825 10.3934 17.9447L10.5337 18.0497L11.6092 18.9651L11.6991 19.0417L11.8096 18.9999L15.0598 17.7704L15.3192 17.6723L15.1442 17.4571L9.89637 11.0035C9.89637 11.0035 9.89637 11.0035 9.89637 11.0035C9.78427 10.8656 9.70733 10.7048 9.67117 10.534C9.63502 10.3633 9.64051 10.1867 9.68727 10.0183C9.73404 9.84984 9.82092 9.6937 9.94154 9.56249ZM14.4041 10.5251H14.3787L14.354 10.5314L13.0852 10.8598L12.7836 10.9379L12.9801 11.1796L18.0868 17.4638L18.0868 17.4639C18.5357 18.0156 18.3551 18.8149 17.7294 19.144L17.5871 19.2087L11.8934 21.3607L11.8933 21.3607C11.7157 21.4279 11.5236 21.4523 11.3337 21.4317C11.1459 21.4113 10.9663 21.3474 10.8102 21.246L10.686 21.1525L9.40537 20.0622L9.32603 19.9946L9.22521 20.0209L8.58602 20.1878L8.29327 20.2642L8.47827 20.5036L11.1042 23.9018L11.1849 24.0063L11.3127 23.9731L30.9755 18.8738L30.9755 18.8738C31.6363 18.7023 32.1765 18.2434 32.439 17.632L32.4903 17.5126L32.402 17.4172C32.1035 17.0951 31.7319 16.8456 31.317 16.6881C30.9021 16.5307 30.4551 16.4695 30.0118 16.5093L30.0118 16.5091L30.0032 16.5102L29.7766 16.5404L29.7766 16.5403L29.7686 16.5417L23.9548 17.5584C23.667 17.6087 23.3706 17.5534 23.1236 17.4044L22.9955 17.3132L14.5315 10.5686L14.4768 10.5251H14.4069H14.4041Z" fill="white" stroke="#177171" stroke-width="0.4"/>
</svg>
