<svg width="40" height="40" viewBox="0 0 40 40" fill="none" xmlns="http://www.w3.org/2000/svg">
<rect width="40" height="40" rx="4" fill="#177171"/>
<path d="M25.3571 24.8C25.073 24.8 24.8005 24.9264 24.5995 25.1515C24.3986 25.3765 24.2857 25.6817 24.2857 26C24.2857 26.3183 24.3986 26.6235 24.5995 26.8485C24.8005 27.0736 25.073 27.2 25.3571 27.2H29.6429C29.927 27.2 30.1995 27.0736 30.4005 26.8485C30.6014 26.6235 30.7143 26.3183 30.7143 26C30.7143 25.6817 30.6014 25.3765 30.4005 25.1515C30.1995 24.9264 29.927 24.8 29.6429 24.8H25.3571ZM5 14C5 12.4087 5.56441 10.8826 6.56907 9.75736C7.57373 8.63214 8.93634 8 10.3571 8H29.6429C31.0637 8 32.4263 8.63214 33.4309 9.75736C34.4356 10.8826 35 12.4087 35 14V26C35 27.5913 34.4356 29.1174 33.4309 30.2426C32.4263 31.3679 31.0637 32 29.6429 32H10.3571C8.93634 32 7.57373 31.3679 6.56907 30.2426C5.56441 29.1174 5 27.5913 5 26V14ZM32.8571 15.2V14C32.8571 13.0452 32.5185 12.1295 31.9157 11.4544C31.3129 10.7793 30.4953 10.4 29.6429 10.4H10.3571C9.50466 10.4 8.6871 10.7793 8.0843 11.4544C7.4815 12.1295 7.14286 13.0452 7.14286 14V15.2H32.8571ZM7.14286 17.6V26C7.14286 26.9548 7.4815 27.8705 8.0843 28.5456C8.6871 29.2207 9.50466 29.6 10.3571 29.6H29.6429C30.4953 29.6 31.3129 29.2207 31.9157 28.5456C32.5185 27.8705 32.8571 26.9548 32.8571 26V17.6H7.14286Z" fill="white"/>
</svg>
