<svg width="40" height="40" viewBox="0 0 40 40" fill="none" xmlns="http://www.w3.org/2000/svg">
<rect width="40" height="40" rx="4" fill="#177171"/>
<path d="M16 29.3333L9.05333 31.6493C8.93297 31.6895 8.80478 31.7005 8.67934 31.6814C8.5539 31.6622 8.43481 31.6135 8.33191 31.5393C8.229 31.465 8.14524 31.3674 8.08753 31.2543C8.02982 31.1413 7.99982 31.0162 8 30.8893V11.244C8.00004 11.0762 8.05284 10.9126 8.15095 10.7765C8.24905 10.6403 8.38749 10.5385 8.54667 10.4853L16 8M16 29.3333L24 32M16 29.3333V8M16 8L24 10.6667M24 32L31.4533 29.516C31.6127 29.4628 31.7513 29.3607 31.8494 29.2243C31.9476 29.0879 32.0002 28.924 32 28.756V9.10933C32 8.98255 31.9698 8.8576 31.912 8.74476C31.8542 8.63192 31.7704 8.53444 31.6676 8.46035C31.5647 8.38625 31.4457 8.33767 31.3203 8.3186C31.195 8.29953 31.0669 8.31052 30.9467 8.35067L24 10.6667M24 32V10.6667" stroke="white" stroke-width="2.1875" stroke-linecap="round" stroke-linejoin="round"/>
</svg>
