<svg width="148" height="300" viewBox="0 0 148 300" fill="none" xmlns="http://www.w3.org/2000/svg">
<path d="M148 0H131.556V16.6667H148V0Z" fill="#197979"/>
<path d="M115.111 0H98.6668V16.6667H115.111V0Z" fill="#197979"/>
<path d="M82.2223 0H65.7779V16.6667H82.2223V0Z" fill="#197979"/>
<path d="M65.7779 0H49.3335V16.6667H65.7779V0Z" fill="#197979"/>
<path d="M49.3335 0H32.8889V16.6667H49.3335V0Z" fill="#197979"/>
<path d="M16.4445 0H0V16.6667H16.4445V0Z" fill="#197979"/>
<path d="M115.111 16.6667H98.6668V33.3333H115.111V16.6667Z" fill="#197979"/>
<path d="M32.8889 16.6667H16.4445V33.3333H32.8889V16.6667Z" fill="#197979"/>
<path d="M148 33.3333H131.556V50.0001H148V33.3333Z" fill="#197979"/>
<path d="M131.556 33.3333H115.111V50.0001H131.556V33.3333Z" fill="#197979"/>
<path d="M98.6668 33.3333H82.2221V50.0001H98.6667L98.6668 33.3333Z" fill="#197979"/>
<path d="M65.7779 33.3333H49.3335V50.0001H65.7779V33.3333Z" fill="#197979"/>
<path d="M49.3335 33.3333H32.8889V50.0001H49.3335V33.3333Z" fill="#197979"/>
<path d="M16.4445 33.3333H0V50.0001H16.4445V33.3333Z" fill="#197979"/>
<path d="M98.6667 50.0001H82.2221V66.6667H98.6667V50.0001Z" fill="#197979"/>
<path d="M65.7779 50.0001H49.3335V66.6667H65.7779V50.0001Z" fill="#197979"/>
<path d="M148 66.6667H131.556V83.3333H148V66.6667Z" fill="#197979"/>
<path d="M115.111 66.6667H98.6667L98.6668 83.3333H115.111V66.6667Z" fill="#197979"/>
<path d="M98.6667 66.6667H82.2221V83.3333H98.6668L98.6667 66.6667Z" fill="#197979"/>
<path d="M82.2221 66.6667H65.7779V83.3333H82.2221V66.6667Z" fill="#197979"/>
<path d="M65.7779 66.6667H49.3335V83.3333H65.7779V66.6667Z" fill="#197979"/>
<path d="M49.3335 66.6667H32.8889V83.3333H49.3335V66.6667Z" fill="#197979"/>
<path d="M131.556 83.3333H115.111V100H131.556L131.556 83.3333Z" fill="#197979"/>
<path d="M98.6668 83.3333H82.2221V100H98.6667L98.6668 83.3333Z" fill="#197979"/>
<path d="M65.7779 83.3333H49.3335V100H65.7779V83.3333Z" fill="#197979"/>
<path d="M32.8889 83.3333H16.4445V100H32.8889V83.3333Z" fill="#197979"/>
<path d="M148 100H131.556L131.556 116.667H148V100Z" fill="#197979"/>
<path d="M98.6667 100H82.2221V116.667H98.6667V100Z" fill="#197979"/>
<path d="M65.7779 100H49.3335V116.667H65.7779V100Z" fill="#197979"/>
<path d="M16.4445 100H0V116.667H16.4445V100Z" fill="#197979"/>
<path d="M115.111 116.667H98.6667L98.6668 133.333H115.111V116.667Z" fill="#197979"/>
<path d="M98.6667 116.667H82.2221V133.333H98.6668L98.6667 116.667Z" fill="#197979"/>
<path d="M65.7779 116.667H49.3335V133.333H65.7779V116.667Z" fill="#197979"/>
<path d="M16.4445 116.667H0V133.333H16.4445V116.667Z" fill="#197979"/>
<path d="M32.8889 116.667H16.4445V133.333H32.8889V116.667Z" fill="#197979"/>
<path d="M148 133.333H131.556V150H148V133.333Z" fill="#197979"/>
<path d="M131.556 133.333H115.111V150H131.556V133.333Z" fill="#197979"/>
<path d="M115.111 133.333H98.6668V150H115.111V133.333Z" fill="#197979"/>
<path d="M49.3335 133.333H32.8889V150H49.3335V133.333Z" fill="#197979"/>
<path d="M32.8889 133.333H16.4445V150H32.8889V133.333Z" fill="#197979"/>
<path d="M16.4445 133.333H0V150H16.4445V133.333Z" fill="#197979"/>
<path d="M98.6668 150H82.2221V166.667H98.6667L98.6668 150Z" fill="#197979"/>
<path d="M49.3335 150H32.8889V166.667H49.3335V150Z" fill="#197979"/>
<path d="M32.8889 150H16.4445V166.667H32.8889V150Z" fill="#197979"/>
<path d="M115.111 166.667H98.6667L98.6668 183.333H115.111V166.667Z" fill="#197979"/>
<path d="M82.2221 166.667H65.7779V183.333H82.2223L82.2221 166.667Z" fill="#197979"/>
<path d="M131.556 183.333H115.111V200H131.556V183.333Z" fill="#197979"/>
<path d="M98.6668 183.333H82.2223L82.2221 200H98.6667L98.6668 183.333Z" fill="#197979"/>
<path d="M65.7779 183.333H49.3335V200H65.7779V183.333Z" fill="#197979"/>
<path d="M16.4445 183.333H0V200H16.4445V183.333Z" fill="#197979"/>
<path d="M32.8889 183.333H16.4445V200H32.8889V183.333Z" fill="#197979"/>
<path d="M148 200H131.556L131.556 216.667H148V200Z" fill="#197979"/>
<path d="M115.111 200H98.6667L98.6668 216.667H115.111V200Z" fill="#197979"/>
<path d="M65.7779 200H49.3335V216.667H65.7779V200Z" fill="#197979"/>
<path d="M49.3335 200H32.8889V216.667H49.3335V200Z" fill="#197979"/>
<path d="M16.4445 200H0V216.667H16.4445V200Z" fill="#197979"/>
<path d="M131.556 216.667H115.111V233.333H131.556L131.556 216.667Z" fill="#197979"/>
<path d="M49.3335 216.667H32.8889V233.333H49.3335V216.667Z" fill="#197979"/>
<path d="M16.4445 216.667H0V233.333H16.4445V216.667Z" fill="#197979"/>
<path d="M115.111 233.333H98.6668V250H115.111V233.333Z" fill="#197979"/>
<path d="M98.6668 233.333H82.2221V250H98.6668V233.333Z" fill="#197979"/>
<path d="M82.2221 233.333H65.7779V250H82.2221V233.333Z" fill="#197979"/>
<path d="M65.7779 233.333H49.3335V250H65.7779V233.333Z" fill="#197979"/>
<path d="M49.3335 233.333H32.8889V250H49.3335V233.333Z" fill="#197979"/>
<path d="M148 250H131.556V266.667H148V250Z" fill="#197979"/>
<path d="M131.556 250H115.111V266.667H131.556V250Z" fill="#197979"/>
<path d="M115.111 250H98.6668V266.667H115.111V250Z" fill="#197979"/>
<path d="M82.2221 250H65.7779V266.667H82.2223L82.2221 250Z" fill="#197979"/>
<path d="M65.7779 250H49.3335V266.667H65.7779V250Z" fill="#197979"/>
<path d="M32.8889 250H16.4445V266.667H32.8889V250Z" fill="#197979"/>
<path d="M148 266.667H131.556V283.333H148V266.667Z" fill="#197979"/>
<path d="M115.111 266.667H98.6668V283.333H115.111V266.667Z" fill="#197979"/>
<path d="M82.2223 266.667H65.7779V283.333H82.2223V266.667Z" fill="#197979"/>
<path d="M49.3335 266.667H32.8889V283.333H49.3335V266.667Z" fill="#197979"/>
<path d="M16.4445 266.667H0V283.333H16.4445V266.667Z" fill="#197979"/>
<path d="M131.556 283.333H115.111V300H131.556L131.556 283.333Z" fill="#197979"/>
<path d="M98.6668 283.333H82.2223L82.2221 300H98.6667L98.6668 283.333Z" fill="#197979"/>
<path d="M82.2223 283.333H65.7779V300H82.2221L82.2223 283.333Z" fill="#197979"/>
<path d="M65.7779 283.333H49.3335V300H65.7779V283.333Z" fill="#197979"/>
<path d="M32.8889 283.333H16.4445V300H32.8889V283.333Z" fill="#197979"/>
</svg>
