<svg width="388" height="90" viewBox="0 0 388 90" fill="none" xmlns="http://www.w3.org/2000/svg">
<path d="M0.0293683 0.0429306C0.0327481 3.27425 1.02949 6.42587 2.88363 9.06557C4.74597 11.717 7.38129 13.7208 10.4252 14.8003C16.4796 16.9122 21.757 20.8171 25.564 26.0018C29.371 31.1865 31.5294 37.4084 31.7555 43.8498V44.9999C31.7566 51.6442 29.7007 58.1241 25.8731 63.5394C22.0455 68.9547 16.6364 73.0367 10.3968 75.2186C7.35519 76.2958 4.7212 78.2965 2.85894 80.9444C1.00399 83.5819 0.00592605 86.7317 0.00098835 89.9618C0.000968868 89.9745 0.000976904 89.9873 0.00098835 90L0.00098835 89.9618L0.0293683 0.0429306Z" fill="#197979"/>
<path d="M56.5636 48C54.9195 48 53.5867 46.6569 53.5867 45C53.5867 43.3431 54.9195 42 56.5636 42H89.3104C90.9546 42 92.2874 43.3431 92.2874 45C92.2874 46.6569 90.9546 48 89.3104 48H56.5636Z" fill="#197979"/>
<path d="M117.096 48C115.451 48 114.119 46.6569 114.119 45C114.119 43.3431 115.451 42 117.096 42H149.842C151.487 42 152.819 43.3431 152.819 45C152.819 46.6569 151.487 48 149.842 48H117.096Z" fill="#197979"/>
<path d="M177.628 48C175.983 48 174.651 46.6569 174.651 45C174.651 43.3431 175.983 42 177.628 42H210.374C212.019 42 213.351 43.3431 213.351 45C213.351 46.6569 212.019 48 210.374 48H177.628Z" fill="#197979"/>
<path d="M238.16 48C236.515 48 235.183 46.6569 235.183 45C235.183 43.3431 236.515 42 238.16 42L270.906 42C272.55 42 273.883 43.3431 273.883 45C273.883 46.6569 272.55 48 270.906 48L238.16 48Z" fill="#197979"/>
<path d="M298.692 48C297.047 48 295.715 46.6569 295.715 45C295.715 43.3431 297.047 42 298.692 42H331.438C333.082 42 334.415 43.3431 334.415 45C334.415 46.6569 333.082 48 331.438 48H298.692Z" fill="#197979"/>
<path d="M387.973 0.0429306C387.969 3.27425 386.972 6.42587 385.118 9.06557C383.256 11.717 380.621 13.7208 377.577 14.8003C371.522 16.9122 366.245 20.8171 362.438 26.0018C358.631 31.1865 356.473 37.4084 356.247 43.8498V44.9999C356.245 51.6442 358.301 58.1241 362.129 63.5394C365.956 68.9547 371.366 73.0367 377.605 75.2186C380.647 76.2958 383.281 78.2965 385.143 80.9444C386.998 83.5819 387.996 86.7317 388.001 89.9618C388.001 89.9745 388.001 89.9873 388.001 90V89.9618L387.973 0.0429306Z" fill="#197979"/>
</svg>
