<svg width="90" height="388" viewBox="0 0 90 388" fill="none" xmlns="http://www.w3.org/2000/svg">
<path d="M89.9571 0.0283917C86.7258 0.0317715 83.5741 1.02852 80.9344 2.88265C78.283 4.74499 76.2792 7.38031 75.1997 10.4242C73.0878 16.4786 69.1829 21.756 63.9982 25.563C58.8135 29.37 52.5916 31.5284 46.1502 31.7545H45.0001C38.3558 31.7557 31.8759 29.6997 26.4606 25.8721C21.0453 22.0445 16.9633 16.6354 14.7814 10.3958C13.7042 7.35421 11.7035 4.72022 9.05559 2.85796C6.41813 1.00302 3.26827 0.00494949 0.038234 1.17877e-05C0.0254898 -7.69411e-06 0.0127466 3.41161e-07 0 1.17877e-05H0.038234L89.9571 0.0283917Z" fill="#197979"/>
<path d="M42 56.5627C42 54.9185 43.3431 53.5857 45 53.5857C46.6569 53.5857 48 54.9185 48 56.5627V89.3095C48 90.9536 46.6569 92.2864 45 92.2864C43.3431 92.2864 42 90.9536 42 89.3095V56.5627Z" fill="#197979"/>
<path d="M42 117.095C42 115.45 43.3431 114.118 45 114.118C46.6569 114.118 48 115.45 48 117.095V149.841C48 151.486 46.6569 152.818 45 152.818C43.3431 152.818 42 151.486 42 149.841V117.095Z" fill="#197979"/>
<path d="M42 177.627C42 175.982 43.3431 174.65 45 174.65C46.6569 174.65 48 175.982 48 177.627V210.373C48 212.018 46.6569 213.35 45 213.35C43.3431 213.35 42 212.018 42 210.373V177.627Z" fill="#197979"/>
<path d="M42 238.159C42 236.514 43.3431 235.182 45 235.182C46.6569 235.182 48 236.514 48 238.159V270.905C48 272.55 46.6569 273.882 45 273.882C43.3431 273.882 42 272.55 42 270.905V238.159Z" fill="#197979"/>
<path d="M42 298.691C42 297.046 43.3431 295.714 45 295.714C46.6569 295.714 48 297.046 48 298.691V331.437C48 333.081 46.6569 334.414 45 334.414C43.3431 334.414 42 333.081 42 331.437V298.691Z" fill="#197979"/>
<path d="M89.9571 387.972C86.7258 387.968 83.5741 386.971 80.9344 385.117C78.283 383.255 76.2792 380.62 75.1997 377.576C73.0878 371.521 69.1829 366.244 63.9982 362.437C58.8135 358.63 52.5916 356.472 46.1502 356.246H45.0001C38.3558 356.244 31.8759 358.3 26.4606 362.128C21.0453 365.955 16.9633 371.365 14.7814 377.604C13.7042 380.646 11.7035 383.28 9.05559 385.142C6.41813 386.997 3.26827 387.995 0.038234 388C0.0254898 388 0.0127466 388 0 388H0.038234L89.9571 387.972Z" fill="#197979"/>
</svg>
